<mxfile host="65bd71144e">
    <diagram id="_WbE188OG-jVPHP1DzlL" name="Page-1">
        <mxGraphModel dx="3843" dy="2657" grid="1" gridSize="10" guides="1" tooltips="1" connect="1" arrows="1" fold="1" page="1" pageScale="1" pageWidth="827" pageHeight="1169" math="0" shadow="0">
            <root>
                <mxCell id="0"/>
                <mxCell id="1" parent="0"/>
                <mxCell id="4" value="" style="edgeStyle=none;html=1;" edge="1" parent="1" source="2" target="3">
                    <mxGeometry relative="1" as="geometry"/>
                </mxCell>
                <mxCell id="2" value="Bazar JJ" style="rounded=0;whiteSpace=wrap;html=1;" parent="1" vertex="1">
                    <mxGeometry x="220" y="20" width="120" height="60" as="geometry"/>
                </mxCell>
                <mxCell id="8" value="" style="edgeStyle=none;html=1;" edge="1" parent="1" source="3" target="7">
                    <mxGeometry relative="1" as="geometry"/>
                </mxCell>
                <mxCell id="3" value="_document.js&lt;br&gt;&lt;br&gt;Archivo de orden superior de Next JS." style="rounded=0;whiteSpace=wrap;html=1;align=left;" vertex="1" parent="1">
                    <mxGeometry x="220" y="160" width="120" height="60" as="geometry"/>
                </mxCell>
                <mxCell id="11" value="" style="edgeStyle=none;html=1;" edge="1" parent="1" source="7" target="10">
                    <mxGeometry relative="1" as="geometry"/>
                </mxCell>
                <mxCell id="234" value="" style="edgeStyle=none;html=1;" edge="1" parent="1" source="7" target="233">
                    <mxGeometry relative="1" as="geometry"/>
                </mxCell>
                <mxCell id="sxn3RgjgabCz4RHIxFUt-236" value="" style="edgeStyle=none;html=1;" edge="1" parent="1" source="7" target="233">
                    <mxGeometry relative="1" as="geometry"/>
                </mxCell>
                <mxCell id="sxn3RgjgabCz4RHIxFUt-237" value="" style="edgeStyle=none;html=1;" edge="1" parent="1" source="7" target="233">
                    <mxGeometry relative="1" as="geometry"/>
                </mxCell>
                <mxCell id="sxn3RgjgabCz4RHIxFUt-238" value="" style="edgeStyle=none;html=1;" edge="1" parent="1" source="7" target="233">
                    <mxGeometry relative="1" as="geometry"/>
                </mxCell>
                <mxCell id="sxn3RgjgabCz4RHIxFUt-240" style="edgeStyle=none;html=1;entryX=0.5;entryY=0;entryDx=0;entryDy=0;" edge="1" parent="1" source="7" target="sxn3RgjgabCz4RHIxFUt-239">
                    <mxGeometry relative="1" as="geometry"/>
                </mxCell>
                <mxCell id="7TLhGI4IgxFFHA1B7xIi-238" style="edgeStyle=none;html=1;entryX=0;entryY=0.5;entryDx=0;entryDy=0;" edge="1" parent="1" source="7" target="7TLhGI4IgxFFHA1B7xIi-234">
                    <mxGeometry relative="1" as="geometry"/>
                </mxCell>
                <mxCell id="7TLhGI4IgxFFHA1B7xIi-239" style="edgeStyle=none;html=1;entryX=0;entryY=0.5;entryDx=0;entryDy=0;" edge="1" parent="1" source="7" target="7TLhGI4IgxFFHA1B7xIi-236">
                    <mxGeometry relative="1" as="geometry"/>
                </mxCell>
                <mxCell id="7TLhGI4IgxFFHA1B7xIi-242" style="edgeStyle=none;html=1;entryX=0;entryY=0.5;entryDx=0;entryDy=0;" edge="1" parent="1" source="7" target="7TLhGI4IgxFFHA1B7xIi-240">
                    <mxGeometry relative="1" as="geometry"/>
                </mxCell>
                <mxCell id="7TLhGI4IgxFFHA1B7xIi-247" style="edgeStyle=none;html=1;entryX=0;entryY=0.5;entryDx=0;entryDy=0;" edge="1" parent="1" source="7" target="7TLhGI4IgxFFHA1B7xIi-244">
                    <mxGeometry relative="1" as="geometry"/>
                </mxCell>
                <mxCell id="7TLhGI4IgxFFHA1B7xIi-248" style="edgeStyle=none;html=1;entryX=0;entryY=0.5;entryDx=0;entryDy=0;" edge="1" parent="1" source="7" target="7TLhGI4IgxFFHA1B7xIi-245">
                    <mxGeometry relative="1" as="geometry"/>
                </mxCell>
                <mxCell id="7TLhGI4IgxFFHA1B7xIi-249" style="edgeStyle=none;html=1;entryX=0;entryY=0.5;entryDx=0;entryDy=0;" edge="1" parent="1" source="7" target="7TLhGI4IgxFFHA1B7xIi-246">
                    <mxGeometry relative="1" as="geometry"/>
                </mxCell>
                <mxCell id="7TLhGI4IgxFFHA1B7xIi-251" style="edgeStyle=none;html=1;entryX=0;entryY=0.5;entryDx=0;entryDy=0;" edge="1" parent="1" source="7" target="7TLhGI4IgxFFHA1B7xIi-250">
                    <mxGeometry relative="1" as="geometry"/>
                </mxCell>
                <mxCell id="7" value="_app.js&lt;br&gt;&lt;br&gt;Inicio del virtual DOM&lt;br&gt;&lt;br&gt;" style="whiteSpace=wrap;html=1;align=left;rounded=0;" vertex="1" parent="1">
                    <mxGeometry x="220" y="300" width="120" height="60" as="geometry"/>
                </mxCell>
                <mxCell id="198" value="" style="edgeStyle=none;html=1;" edge="1" parent="1" source="10" target="197">
                    <mxGeometry relative="1" as="geometry"/>
                </mxCell>
                <mxCell id="10" value="index.jsx&lt;br&gt;&lt;br&gt;getServerSideProps&lt;br&gt;- GET /api/categories&amp;nbsp;&lt;br&gt;&lt;br&gt;Obtiene la lista de todas las categorías activas." style="whiteSpace=wrap;html=1;align=left;rounded=0;" vertex="1" parent="1">
                    <mxGeometry x="-210" y="280" width="190" height="100" as="geometry"/>
                </mxCell>
                <mxCell id="201" value="" style="edgeStyle=none;html=1;" edge="1" parent="1" source="197" target="200">
                    <mxGeometry relative="1" as="geometry"/>
                </mxCell>
                <mxCell id="219" value="" style="edgeStyle=none;html=1;" edge="1" parent="1" source="197" target="218">
                    <mxGeometry relative="1" as="geometry"/>
                </mxCell>
                <mxCell id="228" style="edgeStyle=none;html=1;entryX=1;entryY=0.5;entryDx=0;entryDy=0;" edge="1" parent="1" source="197" target="226">
                    <mxGeometry relative="1" as="geometry"/>
                </mxCell>
                <mxCell id="229" style="edgeStyle=none;html=1;entryX=1;entryY=0.5;entryDx=0;entryDy=0;" edge="1" parent="1" source="197" target="227">
                    <mxGeometry relative="1" as="geometry"/>
                </mxCell>
                <mxCell id="231" value="" style="edgeStyle=none;html=1;" edge="1" parent="1" source="197" target="230">
                    <mxGeometry relative="1" as="geometry"/>
                </mxCell>
                <mxCell id="197" value="Dashboard.jsx&lt;br&gt;" style="whiteSpace=wrap;html=1;align=left;rounded=0;" vertex="1" parent="1">
                    <mxGeometry x="-170" y="500" width="120" height="60" as="geometry"/>
                </mxCell>
                <mxCell id="200" value="ShoppingCategory&lt;br&gt;&lt;br&gt;Muestra las primeras 3 categorías&amp;nbsp;" style="whiteSpace=wrap;html=1;align=left;rounded=0;" vertex="1" parent="1">
                    <mxGeometry x="-390" y="420" width="120" height="60" as="geometry"/>
                </mxCell>
                <mxCell id="218" value="Type_1&lt;br&gt;&lt;br&gt;Variante de la vista de categorías" style="whiteSpace=wrap;html=1;align=left;rounded=0;" vertex="1" parent="1">
                    <mxGeometry x="-390" y="490" width="120" height="60" as="geometry"/>
                </mxCell>
                <mxCell id="226" value="Type_2&lt;br&gt;&lt;br&gt;Variante de la vista de categorías" style="whiteSpace=wrap;html=1;align=left;rounded=0;" vertex="1" parent="1">
                    <mxGeometry x="-389" y="560" width="120" height="60" as="geometry"/>
                </mxCell>
                <mxCell id="227" value="Type_3&lt;br&gt;&lt;br&gt;Variante de la vista de categorías" style="whiteSpace=wrap;html=1;align=left;rounded=0;" vertex="1" parent="1">
                    <mxGeometry x="-390" y="630" width="120" height="60" as="geometry"/>
                </mxCell>
                <mxCell id="230" value="Welcome&lt;br&gt;&lt;br&gt;Muetra el producto más reciente" style="whiteSpace=wrap;html=1;align=left;rounded=0;" vertex="1" parent="1">
                    <mxGeometry x="-170" y="640" width="120" height="60" as="geometry"/>
                </mxCell>
                <mxCell id="sxn3RgjgabCz4RHIxFUt-235" value="" style="edgeStyle=none;html=1;" edge="1" parent="1" source="233" target="sxn3RgjgabCz4RHIxFUt-234">
                    <mxGeometry relative="1" as="geometry"/>
                </mxCell>
                <mxCell id="233" value="Categoríes&lt;br&gt;&lt;br&gt;getServerSideProps&lt;br&gt;- GET /api/categories/{slug}&lt;br&gt;&lt;br&gt;Obtiene una categoría segun el slug de la url" style="whiteSpace=wrap;html=1;align=left;rounded=0;" vertex="1" parent="1">
                    <mxGeometry x="-10" y="510" width="250" height="110" as="geometry"/>
                </mxCell>
                <mxCell id="sxn3RgjgabCz4RHIxFUt-243" style="edgeStyle=none;html=1;" edge="1" parent="1" source="sxn3RgjgabCz4RHIxFUt-234" target="233">
                    <mxGeometry relative="1" as="geometry"/>
                </mxCell>
                <mxCell id="sxn3RgjgabCz4RHIxFUt-234" value="Category&lt;br&gt;&lt;br&gt;Muestra la lista de productos de la categoría actual" style="whiteSpace=wrap;html=1;align=left;rounded=0;" vertex="1" parent="1">
                    <mxGeometry x="-2.5" y="690" width="235" height="95" as="geometry"/>
                </mxCell>
                <mxCell id="sxn3RgjgabCz4RHIxFUt-242" value="" style="edgeStyle=none;html=1;" edge="1" parent="1" source="sxn3RgjgabCz4RHIxFUt-239" target="sxn3RgjgabCz4RHIxFUt-241">
                    <mxGeometry relative="1" as="geometry"/>
                </mxCell>
                <mxCell id="sxn3RgjgabCz4RHIxFUt-239" value="[product]&lt;br&gt;&lt;br&gt;getServerSideProps&lt;br&gt;- GET /api/products/{slug}&lt;br&gt;&lt;br&gt;Obtiene los datos de un producto especifico según slug de la url" style="whiteSpace=wrap;html=1;align=left;rounded=0;" vertex="1" parent="1">
                    <mxGeometry x="260" y="510" width="210" height="110" as="geometry"/>
                </mxCell>
                <mxCell id="sxn3RgjgabCz4RHIxFUt-241" value="Product&lt;br&gt;&lt;br&gt;Contiene el detalle de la vista de producto" style="whiteSpace=wrap;html=1;align=left;rounded=0;" vertex="1" parent="1">
                    <mxGeometry x="275" y="690" width="180" height="80" as="geometry"/>
                </mxCell>
                <mxCell id="7TLhGI4IgxFFHA1B7xIi-234" value="Login&lt;br&gt;&lt;br&gt;Formulario para iniciar sesión y que lleva al admin" style="whiteSpace=wrap;html=1;align=left;rounded=0;" vertex="1" parent="1">
                    <mxGeometry x="420" y="130" width="230" height="90" as="geometry"/>
                </mxCell>
                <mxCell id="7TLhGI4IgxFFHA1B7xIi-263" style="edgeStyle=none;html=1;entryX=0;entryY=0.5;entryDx=0;entryDy=0;" edge="1" parent="1" source="7TLhGI4IgxFFHA1B7xIi-236" target="7TLhGI4IgxFFHA1B7xIi-262">
                    <mxGeometry relative="1" as="geometry"/>
                </mxCell>
                <mxCell id="7TLhGI4IgxFFHA1B7xIi-236" value="Admin" style="whiteSpace=wrap;html=1;align=left;rounded=0;" vertex="1" parent="1">
                    <mxGeometry x="420" y="60" width="230" height="40" as="geometry"/>
                </mxCell>
                <mxCell id="7TLhGI4IgxFFHA1B7xIi-240" value="Atención al cliente" style="whiteSpace=wrap;html=1;align=left;rounded=0;" vertex="1" parent="1">
                    <mxGeometry x="420" y="250" width="220" height="30" as="geometry"/>
                </mxCell>
                <mxCell id="7TLhGI4IgxFFHA1B7xIi-244" value="Envío y devolucion" style="whiteSpace=wrap;html=1;align=left;rounded=0;" vertex="1" parent="1">
                    <mxGeometry x="420" y="300" width="220" height="30" as="geometry"/>
                </mxCell>
                <mxCell id="7TLhGI4IgxFFHA1B7xIi-245" value="Políticas generales" style="whiteSpace=wrap;html=1;align=left;rounded=0;" vertex="1" parent="1">
                    <mxGeometry x="420" y="350" width="220" height="30" as="geometry"/>
                </mxCell>
                <mxCell id="7TLhGI4IgxFFHA1B7xIi-246" value="Políticas de pago" style="whiteSpace=wrap;html=1;align=left;rounded=0;" vertex="1" parent="1">
                    <mxGeometry x="420" y="400" width="220" height="30" as="geometry"/>
                </mxCell>
                <mxCell id="7TLhGI4IgxFFHA1B7xIi-253" value="" style="edgeStyle=none;html=1;" edge="1" parent="1" source="7TLhGI4IgxFFHA1B7xIi-250" target="7TLhGI4IgxFFHA1B7xIi-252">
                    <mxGeometry relative="1" as="geometry"/>
                </mxCell>
                <mxCell id="7TLhGI4IgxFFHA1B7xIi-250" value="Comprobante de productos&lt;br&gt;&lt;br&gt;getServerSideProps&lt;br&gt;&lt;br&gt;Decodifica la url y obtiene la información para el comprobante" style="whiteSpace=wrap;html=1;align=left;rounded=0;" vertex="1" parent="1">
                    <mxGeometry x="500" y="460" width="220" height="110" as="geometry"/>
                </mxCell>
                <mxCell id="7TLhGI4IgxFFHA1B7xIi-256" value="" style="edgeStyle=none;html=1;" edge="1" parent="1" source="7TLhGI4IgxFFHA1B7xIi-252" target="7TLhGI4IgxFFHA1B7xIi-255">
                    <mxGeometry relative="1" as="geometry"/>
                </mxCell>
                <mxCell id="7TLhGI4IgxFFHA1B7xIi-258" value="" style="edgeStyle=none;html=1;" edge="1" parent="1" source="7TLhGI4IgxFFHA1B7xIi-252" target="7TLhGI4IgxFFHA1B7xIi-257">
                    <mxGeometry relative="1" as="geometry"/>
                </mxCell>
                <mxCell id="7TLhGI4IgxFFHA1B7xIi-260" value="" style="edgeStyle=none;html=1;" edge="1" parent="1" source="7TLhGI4IgxFFHA1B7xIi-252" target="7TLhGI4IgxFFHA1B7xIi-259">
                    <mxGeometry relative="1" as="geometry"/>
                </mxCell>
                <mxCell id="7TLhGI4IgxFFHA1B7xIi-252" value="Componente comrprobante de productos&lt;br&gt;&lt;br&gt;Genera el comprobante, PDF, URL, etc con la información del comprobante" style="whiteSpace=wrap;html=1;align=left;rounded=0;" vertex="1" parent="1">
                    <mxGeometry x="810" y="460" width="180" height="110" as="geometry"/>
                </mxCell>
                <mxCell id="7TLhGI4IgxFFHA1B7xIi-255" value="Invoice&lt;br&gt;&lt;br&gt;Estrucutra tipo factura del comprobante" style="rounded=0;whiteSpace=wrap;html=1;align=left;" vertex="1" parent="1">
                    <mxGeometry x="1100" y="480" width="120" height="60" as="geometry"/>
                </mxCell>
                <mxCell id="7TLhGI4IgxFFHA1B7xIi-257" value="Notificación&lt;br&gt;&lt;br&gt;Si la obtención de los datos falló." style="whiteSpace=wrap;html=1;align=left;rounded=0;" vertex="1" parent="1">
                    <mxGeometry x="840" y="335" width="120" height="60" as="geometry"/>
                </mxCell>
                <mxCell id="7TLhGI4IgxFFHA1B7xIi-259" value="Remember&lt;br&gt;&lt;br&gt;Mensaje emergente para recordar que debe enviar por whatsap el comprobante" style="whiteSpace=wrap;html=1;align=left;rounded=0;" vertex="1" parent="1">
                    <mxGeometry x="810" y="630" width="190" height="85" as="geometry"/>
                </mxCell>
                <mxCell id="7TLhGI4IgxFFHA1B7xIi-265" style="edgeStyle=none;html=1;entryX=0.5;entryY=0;entryDx=0;entryDy=0;" edge="1" parent="1" source="7TLhGI4IgxFFHA1B7xIi-262" target="7TLhGI4IgxFFHA1B7xIi-264">
                    <mxGeometry relative="1" as="geometry"/>
                </mxCell>
                <mxCell id="7TLhGI4IgxFFHA1B7xIi-270" style="edgeStyle=none;html=1;" edge="1" parent="1" source="7TLhGI4IgxFFHA1B7xIi-262" target="7TLhGI4IgxFFHA1B7xIi-269">
                    <mxGeometry relative="1" as="geometry"/>
                </mxCell>
                <mxCell id="7TLhGI4IgxFFHA1B7xIi-272" style="edgeStyle=none;html=1;entryX=0;entryY=0.5;entryDx=0;entryDy=0;" edge="1" parent="1" source="7TLhGI4IgxFFHA1B7xIi-262" target="7TLhGI4IgxFFHA1B7xIi-266">
                    <mxGeometry relative="1" as="geometry"/>
                </mxCell>
                <mxCell id="7TLhGI4IgxFFHA1B7xIi-275" style="edgeStyle=none;html=1;" edge="1" parent="1" source="7TLhGI4IgxFFHA1B7xIi-262" target="7TLhGI4IgxFFHA1B7xIi-273">
                    <mxGeometry relative="1" as="geometry"/>
                </mxCell>
                <mxCell id="7TLhGI4IgxFFHA1B7xIi-279" style="edgeStyle=none;html=1;entryX=0.5;entryY=0;entryDx=0;entryDy=0;" edge="1" parent="1" source="7TLhGI4IgxFFHA1B7xIi-262" target="7TLhGI4IgxFFHA1B7xIi-278">
                    <mxGeometry relative="1" as="geometry"/>
                </mxCell>
                <mxCell id="7TLhGI4IgxFFHA1B7xIi-281" style="edgeStyle=none;html=1;entryX=0;entryY=0.5;entryDx=0;entryDy=0;" edge="1" parent="1" source="7TLhGI4IgxFFHA1B7xIi-262" target="7TLhGI4IgxFFHA1B7xIi-280">
                    <mxGeometry relative="1" as="geometry"/>
                </mxCell>
                <mxCell id="7TLhGI4IgxFFHA1B7xIi-262" value="Admin" style="whiteSpace=wrap;html=1;align=left;rounded=0;" vertex="1" parent="1">
                    <mxGeometry x="682.5" y="50" width="195" height="60" as="geometry"/>
                </mxCell>
                <mxCell id="7TLhGI4IgxFFHA1B7xIi-264" value="Notificación&lt;br&gt;&lt;br&gt;Si la alguna operación falló." style="whiteSpace=wrap;html=1;align=left;rounded=0;" vertex="1" parent="1">
                    <mxGeometry x="680" y="230" width="120" height="60" as="geometry"/>
                </mxCell>
                <mxCell id="7TLhGI4IgxFFHA1B7xIi-266" value="Add Category&lt;br&gt;&lt;br&gt;Formulario que permite añadir una categoría" style="whiteSpace=wrap;html=1;align=left;rounded=0;" vertex="1" parent="1">
                    <mxGeometry x="900" y="-30" width="210" height="60" as="geometry"/>
                </mxCell>
                <mxCell id="7TLhGI4IgxFFHA1B7xIi-269" value="Products&lt;br&gt;&lt;br&gt;Lista los productos asociados a cada categoría" style="whiteSpace=wrap;html=1;align=left;rounded=0;" vertex="1" parent="1">
                    <mxGeometry x="940" y="50" width="220" height="60" as="geometry"/>
                </mxCell>
                <mxCell id="7TLhGI4IgxFFHA1B7xIi-273" value="Confirm&lt;br&gt;&lt;br&gt;Mensaje de alerta para confirmar si desea eliminar una categoría" style="whiteSpace=wrap;html=1;align=left;rounded=0;" vertex="1" parent="1">
                    <mxGeometry x="660" y="-70" width="210" height="60" as="geometry"/>
                </mxCell>
                <mxCell id="7TLhGI4IgxFFHA1B7xIi-278" value="&lt;br&gt;Table&lt;br&gt;&lt;br&gt;Muestra las categorías creadas" style="whiteSpace=wrap;html=1;align=left;rounded=0;" vertex="1" parent="1">
                    <mxGeometry x="870" y="220" width="120" height="60" as="geometry"/>
                </mxCell>
                <mxCell id="7TLhGI4IgxFFHA1B7xIi-284" value="" style="edgeStyle=none;html=1;" edge="1" parent="1" source="7TLhGI4IgxFFHA1B7xIi-280" target="7TLhGI4IgxFFHA1B7xIi-283">
                    <mxGeometry relative="1" as="geometry"/>
                </mxCell>
                <mxCell id="7TLhGI4IgxFFHA1B7xIi-280" value="Add Productos&lt;br&gt;&lt;br&gt;Componente para agregar productos" style="whiteSpace=wrap;html=1;align=left;rounded=0;" vertex="1" parent="1">
                    <mxGeometry x="1000" y="140" width="220" height="60" as="geometry"/>
                </mxCell>
                <mxCell id="7TLhGI4IgxFFHA1B7xIi-283" value="Dropzone&lt;br&gt;&lt;br&gt;Componente para agregar y analizar el CSV que contiene los productos a agregar en una categoría especifica" style="whiteSpace=wrap;html=1;align=left;rounded=0;" vertex="1" parent="1">
                    <mxGeometry x="1060" y="230" width="260" height="110" as="geometry"/>
                </mxCell>
            </root>
        </mxGraphModel>
    </diagram>
    <diagram id="8ZHmAPtxkcjdq68WYiU5" name="Page-2">
        <mxGraphModel dx="1160" dy="572" grid="1" gridSize="10" guides="1" tooltips="1" connect="1" arrows="1" fold="1" page="1" pageScale="1" pageWidth="827" pageHeight="1169" math="0" shadow="0">
            <root>
                <mxCell id="0"/>
                <mxCell id="1" parent="0"/>
                <mxCell id="ggEMIiDDuYC6EZakOsWL-1" value="SEO.jsx&lt;br&gt;&lt;br&gt;Componente de metadat para compartir en redes sociales" style="whiteSpace=wrap;html=1;align=left;rounded=0;" vertex="1" parent="1">
                    <mxGeometry x="40" y="70" width="200" height="60" as="geometry"/>
                </mxCell>
                <mxCell id="RrEVAbey4dOgAZFIUHZE-1" value="" style="edgeStyle=none;html=1;" edge="1" parent="1" source="RrEVAbey4dOgAZFIUHZE-4" target="RrEVAbey4dOgAZFIUHZE-5">
                    <mxGeometry relative="1" as="geometry"/>
                </mxCell>
                <mxCell id="RrEVAbey4dOgAZFIUHZE-2" value="" style="edgeStyle=none;html=1;" edge="1" parent="1" source="RrEVAbey4dOgAZFIUHZE-4" target="RrEVAbey4dOgAZFIUHZE-6">
                    <mxGeometry relative="1" as="geometry"/>
                </mxCell>
                <mxCell id="RrEVAbey4dOgAZFIUHZE-3" value="" style="edgeStyle=none;html=1;" edge="1" parent="1" source="RrEVAbey4dOgAZFIUHZE-4" target="RrEVAbey4dOgAZFIUHZE-7">
                    <mxGeometry relative="1" as="geometry"/>
                </mxCell>
                <mxCell id="RrEVAbey4dOgAZFIUHZE-4" value="Layout" style="whiteSpace=wrap;html=1;" vertex="1" parent="1">
                    <mxGeometry x="40" y="170" width="120" height="60" as="geometry"/>
                </mxCell>
                <mxCell id="RrEVAbey4dOgAZFIUHZE-5" value="Footer" style="whiteSpace=wrap;html=1;" vertex="1" parent="1">
                    <mxGeometry x="40" y="270" width="120" height="60" as="geometry"/>
                </mxCell>
                <mxCell id="RrEVAbey4dOgAZFIUHZE-6" value="CategoriesMenu" style="whiteSpace=wrap;html=1;" vertex="1" parent="1">
                    <mxGeometry x="220" y="260" width="120" height="60" as="geometry"/>
                </mxCell>
                <mxCell id="RrEVAbey4dOgAZFIUHZE-7" value="ShoppingCard" style="whiteSpace=wrap;html=1;" vertex="1" parent="1">
                    <mxGeometry x="280" y="170" width="120" height="60" as="geometry"/>
                </mxCell>
                <mxCell id="RrEVAbey4dOgAZFIUHZE-10" style="edgeStyle=none;html=1;entryX=1;entryY=0.5;entryDx=0;entryDy=0;" edge="1" parent="1" source="RrEVAbey4dOgAZFIUHZE-9" target="RrEVAbey4dOgAZFIUHZE-7">
                    <mxGeometry relative="1" as="geometry"/>
                </mxCell>
                <mxCell id="RrEVAbey4dOgAZFIUHZE-9" value="ContextShopingCard" style="whiteSpace=wrap;html=1;" vertex="1" parent="1">
                    <mxGeometry x="540" y="170" width="130" height="60" as="geometry"/>
                </mxCell>
                <mxCell id="zVLNq3GtunQpuAXPHgdR-1" value="" style="edgeStyle=none;html=1;" edge="1" parent="1" source="zVLNq3GtunQpuAXPHgdR-3" target="zVLNq3GtunQpuAXPHgdR-4">
                    <mxGeometry relative="1" as="geometry"/>
                </mxCell>
                <mxCell id="zVLNq3GtunQpuAXPHgdR-2" value="" style="edgeStyle=none;html=1;" edge="1" parent="1" source="zVLNq3GtunQpuAXPHgdR-3" target="zVLNq3GtunQpuAXPHgdR-5">
                    <mxGeometry relative="1" as="geometry"/>
                </mxCell>
                <mxCell id="zVLNq3GtunQpuAXPHgdR-3" value="Providers.jsx&lt;br&gt;&lt;br&gt;Contenedor de proveedores&amp;nbsp;" style="whiteSpace=wrap;html=1;align=left;rounded=0;" vertex="1" parent="1">
                    <mxGeometry x="50" y="445" width="120" height="60" as="geometry"/>
                </mxCell>
                <mxCell id="zVLNq3GtunQpuAXPHgdR-4" value="Session Provider&lt;br&gt;&lt;br&gt;Componente preempaquetado que administrala sessión del usuario" style="whiteSpace=wrap;html=1;align=left;rounded=0;" vertex="1" parent="1">
                    <mxGeometry x="239" y="365" width="189" height="80" as="geometry"/>
                </mxCell>
                <mxCell id="zVLNq3GtunQpuAXPHgdR-5" value="ContextShoppingCart.jsx&lt;br&gt;&lt;br&gt;Contexto que almacen la información del carro de compras" style="whiteSpace=wrap;html=1;align=left;rounded=0;" vertex="1" parent="1">
                    <mxGeometry x="239" y="515" width="189" height="70" as="geometry"/>
                </mxCell>
            </root>
        </mxGraphModel>
    </diagram>
</mxfile>